<mxfile host="app.diagrams.net" agent="Mozilla/5.0 (Windows NT 10.0; Win64; x64) AppleWebKit/537.36 (KHTML, like Gecko) Chrome/135.0.0.0 Safari/537.36" version="26.2.14">
  <diagram name="Страница — 1" id="9XER88DdSP2M4SVPdyNl">
    <mxGraphModel dx="464" dy="1876" grid="1" gridSize="10" guides="1" tooltips="1" connect="1" arrows="1" fold="1" page="1" pageScale="1" pageWidth="850" pageHeight="1100" math="0" shadow="0">
      <root>
        <mxCell id="0" />
        <mxCell id="1" parent="0" />
        <mxCell id="PUThZEJy_DijCIgUab3H-1" value="Пользователь" style="shape=umlActor;verticalLabelPosition=bottom;verticalAlign=top;html=1;outlineConnect=0;" parent="1" vertex="1">
          <mxGeometry x="90" y="150" width="30" height="60" as="geometry" />
        </mxCell>
        <mxCell id="PUThZEJy_DijCIgUab3H-2" value="Авторизация" style="ellipse;whiteSpace=wrap;html=1;" parent="1" vertex="1">
          <mxGeometry x="230" y="-77.5" width="120" height="80" as="geometry" />
        </mxCell>
        <mxCell id="PUThZEJy_DijCIgUab3H-3" value="Регистрация" style="ellipse;whiteSpace=wrap;html=1;" parent="1" vertex="1">
          <mxGeometry x="240" y="120" width="120" height="80" as="geometry" />
        </mxCell>
        <mxCell id="PUThZEJy_DijCIgUab3H-7" value="" style="endArrow=none;html=1;rounded=0;" parent="1" source="PUThZEJy_DijCIgUab3H-1" target="PUThZEJy_DijCIgUab3H-2" edge="1">
          <mxGeometry width="50" height="50" relative="1" as="geometry">
            <mxPoint x="290" y="170" as="sourcePoint" />
            <mxPoint x="340" y="120" as="targetPoint" />
          </mxGeometry>
        </mxCell>
        <mxCell id="PUThZEJy_DijCIgUab3H-8" value="Выбор товара" style="ellipse;whiteSpace=wrap;html=1;" parent="1" vertex="1">
          <mxGeometry x="450" y="-120" width="120" height="80" as="geometry" />
        </mxCell>
        <mxCell id="PUThZEJy_DijCIgUab3H-9" value="" style="endArrow=none;html=1;rounded=0;" parent="1" source="PUThZEJy_DijCIgUab3H-2" target="PUThZEJy_DijCIgUab3H-8" edge="1">
          <mxGeometry width="50" height="50" relative="1" as="geometry">
            <mxPoint x="340" y="-50" as="sourcePoint" />
            <mxPoint x="390" y="-100" as="targetPoint" />
          </mxGeometry>
        </mxCell>
        <mxCell id="PUThZEJy_DijCIgUab3H-12" value="Покупка необходимого товара" style="ellipse;whiteSpace=wrap;html=1;" parent="1" vertex="1">
          <mxGeometry x="610" y="-260" width="120" height="80" as="geometry" />
        </mxCell>
        <mxCell id="PUThZEJy_DijCIgUab3H-13" value="Умный поиск" style="ellipse;whiteSpace=wrap;html=1;" parent="1" vertex="1">
          <mxGeometry x="230" y="-290" width="120" height="80" as="geometry" />
        </mxCell>
        <mxCell id="PUThZEJy_DijCIgUab3H-14" value="" style="endArrow=classic;html=1;rounded=0;dashed=1;" parent="1" source="PUThZEJy_DijCIgUab3H-13" target="PUThZEJy_DijCIgUab3H-8" edge="1">
          <mxGeometry width="50" height="50" relative="1" as="geometry">
            <mxPoint x="300" y="-240" as="sourcePoint" />
            <mxPoint x="374" y="-166" as="targetPoint" />
          </mxGeometry>
        </mxCell>
        <mxCell id="PUThZEJy_DijCIgUab3H-15" value="&amp;lt;&amp;lt;extend&amp;gt;&amp;gt;" style="edgeLabel;html=1;align=center;verticalAlign=middle;resizable=0;points=[];" parent="PUThZEJy_DijCIgUab3H-14" vertex="1" connectable="0">
          <mxGeometry x="-0.2571" y="-1" relative="1" as="geometry">
            <mxPoint x="41" y="-6" as="offset" />
          </mxGeometry>
        </mxCell>
        <mxCell id="PUThZEJy_DijCIgUab3H-18" value="" style="endArrow=none;html=1;rounded=0;" parent="1" source="PUThZEJy_DijCIgUab3H-12" target="PUThZEJy_DijCIgUab3H-8" edge="1">
          <mxGeometry width="50" height="50" relative="1" as="geometry">
            <mxPoint x="250" y="30" as="sourcePoint" />
            <mxPoint x="300" y="-20" as="targetPoint" />
          </mxGeometry>
        </mxCell>
        <mxCell id="9c3I11lACqH2MgyoT5pi-4" value="" style="endArrow=none;html=1;rounded=0;" parent="1" source="PUThZEJy_DijCIgUab3H-1" target="PUThZEJy_DijCIgUab3H-3" edge="1">
          <mxGeometry width="50" height="50" relative="1" as="geometry">
            <mxPoint x="120" y="290" as="sourcePoint" />
            <mxPoint x="170" y="240" as="targetPoint" />
          </mxGeometry>
        </mxCell>
        <mxCell id="9c3I11lACqH2MgyoT5pi-5" value="Оплата картой" style="ellipse;whiteSpace=wrap;html=1;" parent="1" vertex="1">
          <mxGeometry x="1050" y="-40" width="120" height="80" as="geometry" />
        </mxCell>
        <mxCell id="9c3I11lACqH2MgyoT5pi-6" value="" style="endArrow=classic;html=1;rounded=0;dashed=1;" parent="1" source="9c3I11lACqH2MgyoT5pi-5" target="9c3I11lACqH2MgyoT5pi-45" edge="1">
          <mxGeometry width="50" height="50" relative="1" as="geometry">
            <mxPoint x="510" y="-304" as="sourcePoint" />
            <mxPoint x="679" y="-380" as="targetPoint" />
          </mxGeometry>
        </mxCell>
        <mxCell id="9c3I11lACqH2MgyoT5pi-7" value="&amp;lt;&amp;lt;extend&amp;gt;&amp;gt;" style="edgeLabel;html=1;align=center;verticalAlign=middle;resizable=0;points=[];" parent="9c3I11lACqH2MgyoT5pi-6" vertex="1" connectable="0">
          <mxGeometry x="-0.2571" y="-1" relative="1" as="geometry">
            <mxPoint x="-31" y="6" as="offset" />
          </mxGeometry>
        </mxCell>
        <mxCell id="9c3I11lACqH2MgyoT5pi-8" value="Оплата на личными" style="ellipse;whiteSpace=wrap;html=1;" parent="1" vertex="1">
          <mxGeometry x="1050" y="-260" width="120" height="80" as="geometry" />
        </mxCell>
        <mxCell id="9c3I11lACqH2MgyoT5pi-9" value="" style="endArrow=classic;html=1;rounded=0;dashed=1;" parent="1" source="9c3I11lACqH2MgyoT5pi-8" target="9c3I11lACqH2MgyoT5pi-45" edge="1">
          <mxGeometry width="50" height="50" relative="1" as="geometry">
            <mxPoint x="633" y="-255" as="sourcePoint" />
            <mxPoint x="700" y="-470" as="targetPoint" />
          </mxGeometry>
        </mxCell>
        <mxCell id="9c3I11lACqH2MgyoT5pi-10" value="&amp;lt;&amp;lt;extend&amp;gt;&amp;gt;" style="edgeLabel;html=1;align=center;verticalAlign=middle;resizable=0;points=[];" parent="9c3I11lACqH2MgyoT5pi-9" vertex="1" connectable="0">
          <mxGeometry x="-0.2571" y="-1" relative="1" as="geometry">
            <mxPoint x="-17" y="-11" as="offset" />
          </mxGeometry>
        </mxCell>
        <mxCell id="9c3I11lACqH2MgyoT5pi-14" value="Оплата частями" style="ellipse;whiteSpace=wrap;html=1;" parent="1" vertex="1">
          <mxGeometry x="1050" y="-140" width="120" height="80" as="geometry" />
        </mxCell>
        <mxCell id="9c3I11lACqH2MgyoT5pi-15" value="" style="endArrow=classic;html=1;rounded=0;dashed=1;" parent="1" source="9c3I11lACqH2MgyoT5pi-14" target="9c3I11lACqH2MgyoT5pi-45" edge="1">
          <mxGeometry width="50" height="50" relative="1" as="geometry">
            <mxPoint x="727" y="-175" as="sourcePoint" />
            <mxPoint x="790" y="-102" as="targetPoint" />
          </mxGeometry>
        </mxCell>
        <mxCell id="9c3I11lACqH2MgyoT5pi-16" value="&amp;lt;&amp;lt;extend&amp;gt;&amp;gt;" style="edgeLabel;html=1;align=center;verticalAlign=middle;resizable=0;points=[];" parent="9c3I11lACqH2MgyoT5pi-15" vertex="1" connectable="0">
          <mxGeometry x="-0.2571" y="-1" relative="1" as="geometry">
            <mxPoint x="-17" y="-11" as="offset" />
          </mxGeometry>
        </mxCell>
        <mxCell id="9c3I11lACqH2MgyoT5pi-18" value="Оставление коментария о товаре/продавце" style="ellipse;whiteSpace=wrap;html=1;" parent="1" vertex="1">
          <mxGeometry x="540" y="-420" width="120" height="80" as="geometry" />
        </mxCell>
        <mxCell id="9c3I11lACqH2MgyoT5pi-19" value="" style="endArrow=classic;html=1;rounded=0;dashed=1;" parent="1" source="9c3I11lACqH2MgyoT5pi-18" target="PUThZEJy_DijCIgUab3H-12" edge="1">
          <mxGeometry width="50" height="50" relative="1" as="geometry">
            <mxPoint x="867" y="-187" as="sourcePoint" />
            <mxPoint x="727" y="-153" as="targetPoint" />
          </mxGeometry>
        </mxCell>
        <mxCell id="9c3I11lACqH2MgyoT5pi-20" value="&amp;lt;&amp;lt;extend&amp;gt;&amp;gt;" style="edgeLabel;html=1;align=center;verticalAlign=middle;resizable=0;points=[];" parent="9c3I11lACqH2MgyoT5pi-19" vertex="1" connectable="0">
          <mxGeometry x="-0.2571" y="-1" relative="1" as="geometry">
            <mxPoint x="-17" y="-11" as="offset" />
          </mxGeometry>
        </mxCell>
        <mxCell id="9c3I11lACqH2MgyoT5pi-21" value="Просмотр корзины" style="ellipse;whiteSpace=wrap;html=1;" parent="1" vertex="1">
          <mxGeometry x="600" y="100" width="120" height="80" as="geometry" />
        </mxCell>
        <mxCell id="9c3I11lACqH2MgyoT5pi-22" value="" style="endArrow=none;html=1;rounded=0;" parent="1" source="PUThZEJy_DijCIgUab3H-2" target="9c3I11lACqH2MgyoT5pi-21" edge="1">
          <mxGeometry width="50" height="50" relative="1" as="geometry">
            <mxPoint x="220" y="-22" as="sourcePoint" />
            <mxPoint x="430" y="-118" as="targetPoint" />
          </mxGeometry>
        </mxCell>
        <mxCell id="9c3I11lACqH2MgyoT5pi-23" value="Оплата" style="ellipse;whiteSpace=wrap;html=1;" parent="1" vertex="1">
          <mxGeometry x="690" y="-20" width="120" height="80" as="geometry" />
        </mxCell>
        <mxCell id="9c3I11lACqH2MgyoT5pi-24" value="" style="endArrow=classic;html=1;rounded=0;dashed=1;" parent="1" source="9c3I11lACqH2MgyoT5pi-23" target="9c3I11lACqH2MgyoT5pi-21" edge="1">
          <mxGeometry width="50" height="50" relative="1" as="geometry">
            <mxPoint x="-190.53097345133347" y="-584.6902654867263" as="sourcePoint" />
            <mxPoint x="-99.39318071148591" y="-575.6745077112885" as="targetPoint" />
          </mxGeometry>
        </mxCell>
        <mxCell id="9c3I11lACqH2MgyoT5pi-25" value="&amp;lt;&amp;lt;extend&amp;gt;&amp;gt;" style="edgeLabel;html=1;align=center;verticalAlign=middle;resizable=0;points=[];" parent="9c3I11lACqH2MgyoT5pi-24" vertex="1" connectable="0">
          <mxGeometry x="-0.2571" y="-1" relative="1" as="geometry">
            <mxPoint x="17" y="-10" as="offset" />
          </mxGeometry>
        </mxCell>
        <mxCell id="9c3I11lACqH2MgyoT5pi-26" value="Удаленеи товара" style="ellipse;whiteSpace=wrap;html=1;" parent="1" vertex="1">
          <mxGeometry x="540" y="-10" width="120" height="80" as="geometry" />
        </mxCell>
        <mxCell id="9c3I11lACqH2MgyoT5pi-27" value="" style="endArrow=classic;html=1;rounded=0;dashed=1;" parent="1" source="9c3I11lACqH2MgyoT5pi-26" target="9c3I11lACqH2MgyoT5pi-21" edge="1">
          <mxGeometry width="50" height="50" relative="1" as="geometry">
            <mxPoint x="9" y="-252.73000000000002" as="sourcePoint" />
            <mxPoint x="101" y="-244.73000000000002" as="targetPoint" />
          </mxGeometry>
        </mxCell>
        <mxCell id="9c3I11lACqH2MgyoT5pi-28" value="&amp;lt;&amp;lt;extend&amp;gt;&amp;gt;" style="edgeLabel;html=1;align=center;verticalAlign=middle;resizable=0;points=[];" parent="9c3I11lACqH2MgyoT5pi-27" vertex="1" connectable="0">
          <mxGeometry x="-0.2571" y="-1" relative="1" as="geometry">
            <mxPoint x="17" y="-10" as="offset" />
          </mxGeometry>
        </mxCell>
        <mxCell id="9c3I11lACqH2MgyoT5pi-29" value="Добавление в корзину товра" style="ellipse;whiteSpace=wrap;html=1;" parent="1" vertex="1">
          <mxGeometry x="400" y="-370" width="120" height="80" as="geometry" />
        </mxCell>
        <mxCell id="9c3I11lACqH2MgyoT5pi-30" value="" style="endArrow=classic;html=1;rounded=0;dashed=1;" parent="1" source="9c3I11lACqH2MgyoT5pi-29" target="PUThZEJy_DijCIgUab3H-8" edge="1">
          <mxGeometry width="50" height="50" relative="1" as="geometry">
            <mxPoint x="346" y="-214" as="sourcePoint" />
            <mxPoint x="434" y="-166" as="targetPoint" />
          </mxGeometry>
        </mxCell>
        <mxCell id="9c3I11lACqH2MgyoT5pi-31" value="&amp;lt;&amp;lt;extend&amp;gt;&amp;gt;" style="edgeLabel;html=1;align=center;verticalAlign=middle;resizable=0;points=[];" parent="9c3I11lACqH2MgyoT5pi-30" vertex="1" connectable="0">
          <mxGeometry x="-0.2571" y="-1" relative="1" as="geometry">
            <mxPoint x="41" y="-6" as="offset" />
          </mxGeometry>
        </mxCell>
        <mxCell id="9c3I11lACqH2MgyoT5pi-32" value="Посмотреть профиль" style="ellipse;whiteSpace=wrap;html=1;" parent="1" vertex="1">
          <mxGeometry x="570" y="240" width="120" height="80" as="geometry" />
        </mxCell>
        <mxCell id="9c3I11lACqH2MgyoT5pi-33" value="" style="endArrow=none;html=1;rounded=0;" parent="1" source="9c3I11lACqH2MgyoT5pi-32" target="PUThZEJy_DijCIgUab3H-2" edge="1">
          <mxGeometry width="50" height="50" relative="1" as="geometry">
            <mxPoint x="170" y="80" as="sourcePoint" />
            <mxPoint x="220" y="30" as="targetPoint" />
          </mxGeometry>
        </mxCell>
        <mxCell id="9c3I11lACqH2MgyoT5pi-45" value="Оплата товара" style="ellipse;whiteSpace=wrap;html=1;" parent="1" vertex="1">
          <mxGeometry x="840" y="-150" width="120" height="80" as="geometry" />
        </mxCell>
        <mxCell id="9c3I11lACqH2MgyoT5pi-46" value="" style="endArrow=classic;html=1;rounded=0;dashed=1;" parent="1" source="PUThZEJy_DijCIgUab3H-12" target="9c3I11lACqH2MgyoT5pi-45" edge="1">
          <mxGeometry width="50" height="50" relative="1" as="geometry">
            <mxPoint x="843" y="89" as="sourcePoint" />
            <mxPoint x="927" y="121" as="targetPoint" />
          </mxGeometry>
        </mxCell>
        <mxCell id="9c3I11lACqH2MgyoT5pi-47" value="&amp;lt;&amp;lt;include&amp;gt;&amp;gt;" style="edgeLabel;html=1;align=center;verticalAlign=middle;resizable=0;points=[];" parent="9c3I11lACqH2MgyoT5pi-46" vertex="1" connectable="0">
          <mxGeometry x="-0.2571" y="-1" relative="1" as="geometry">
            <mxPoint x="41" y="-6" as="offset" />
          </mxGeometry>
        </mxCell>
        <mxCell id="9c3I11lACqH2MgyoT5pi-49" value="Выбор места доставки товара" style="ellipse;whiteSpace=wrap;html=1;" parent="1" vertex="1">
          <mxGeometry x="910" y="-380" width="120" height="80" as="geometry" />
        </mxCell>
        <mxCell id="9c3I11lACqH2MgyoT5pi-50" value="" style="endArrow=classic;html=1;rounded=0;dashed=1;" parent="1" source="PUThZEJy_DijCIgUab3H-12" target="9c3I11lACqH2MgyoT5pi-49" edge="1">
          <mxGeometry width="50" height="50" relative="1" as="geometry">
            <mxPoint x="723" y="-122" as="sourcePoint" />
            <mxPoint x="877" y="-68" as="targetPoint" />
          </mxGeometry>
        </mxCell>
        <mxCell id="9c3I11lACqH2MgyoT5pi-51" value="&amp;lt;&amp;lt;include&amp;gt;&amp;gt;" style="edgeLabel;html=1;align=center;verticalAlign=middle;resizable=0;points=[];" parent="9c3I11lACqH2MgyoT5pi-50" vertex="1" connectable="0">
          <mxGeometry x="-0.2571" y="-1" relative="1" as="geometry">
            <mxPoint x="41" y="-6" as="offset" />
          </mxGeometry>
        </mxCell>
        <mxCell id="9c3I11lACqH2MgyoT5pi-52" value="Доставка до места&amp;nbsp;" style="ellipse;whiteSpace=wrap;html=1;" parent="1" vertex="1">
          <mxGeometry x="840" y="-530" width="120" height="80" as="geometry" />
        </mxCell>
        <mxCell id="9c3I11lACqH2MgyoT5pi-53" value="Само вывоз" style="ellipse;whiteSpace=wrap;html=1;" parent="1" vertex="1">
          <mxGeometry x="990" y="-540" width="120" height="80" as="geometry" />
        </mxCell>
        <mxCell id="9c3I11lACqH2MgyoT5pi-54" value="Оправка по почте" style="ellipse;whiteSpace=wrap;html=1;" parent="1" vertex="1">
          <mxGeometry x="1090" y="-430" width="120" height="80" as="geometry" />
        </mxCell>
        <mxCell id="9c3I11lACqH2MgyoT5pi-55" value="" style="endArrow=classic;html=1;rounded=0;dashed=1;" parent="1" source="9c3I11lACqH2MgyoT5pi-52" target="9c3I11lACqH2MgyoT5pi-49" edge="1">
          <mxGeometry width="50" height="50" relative="1" as="geometry">
            <mxPoint x="860" y="-420" as="sourcePoint" />
            <mxPoint x="870" y="-350" as="targetPoint" />
          </mxGeometry>
        </mxCell>
        <mxCell id="9c3I11lACqH2MgyoT5pi-56" value="&amp;lt;&amp;lt;extend&amp;gt;&amp;gt;" style="edgeLabel;html=1;align=center;verticalAlign=middle;resizable=0;points=[];" parent="9c3I11lACqH2MgyoT5pi-55" vertex="1" connectable="0">
          <mxGeometry x="-0.2571" y="-1" relative="1" as="geometry">
            <mxPoint x="-17" y="-11" as="offset" />
          </mxGeometry>
        </mxCell>
        <mxCell id="9c3I11lACqH2MgyoT5pi-57" value="" style="endArrow=classic;html=1;rounded=0;dashed=1;" parent="1" source="9c3I11lACqH2MgyoT5pi-53" target="9c3I11lACqH2MgyoT5pi-49" edge="1">
          <mxGeometry width="50" height="50" relative="1" as="geometry">
            <mxPoint x="1070" y="-450" as="sourcePoint" />
            <mxPoint x="1080" y="-380" as="targetPoint" />
          </mxGeometry>
        </mxCell>
        <mxCell id="9c3I11lACqH2MgyoT5pi-58" value="&amp;lt;&amp;lt;extend&amp;gt;&amp;gt;" style="edgeLabel;html=1;align=center;verticalAlign=middle;resizable=0;points=[];" parent="9c3I11lACqH2MgyoT5pi-57" vertex="1" connectable="0">
          <mxGeometry x="-0.2571" y="-1" relative="1" as="geometry">
            <mxPoint x="-17" y="-11" as="offset" />
          </mxGeometry>
        </mxCell>
        <mxCell id="9c3I11lACqH2MgyoT5pi-59" value="" style="endArrow=classic;html=1;rounded=0;dashed=1;" parent="1" source="9c3I11lACqH2MgyoT5pi-54" target="9c3I11lACqH2MgyoT5pi-49" edge="1">
          <mxGeometry width="50" height="50" relative="1" as="geometry">
            <mxPoint x="1041" y="-452" as="sourcePoint" />
            <mxPoint x="999" y="-368" as="targetPoint" />
          </mxGeometry>
        </mxCell>
        <mxCell id="9c3I11lACqH2MgyoT5pi-60" value="&amp;lt;&amp;lt;extend&amp;gt;&amp;gt;" style="edgeLabel;html=1;align=center;verticalAlign=middle;resizable=0;points=[];" parent="9c3I11lACqH2MgyoT5pi-59" vertex="1" connectable="0">
          <mxGeometry x="-0.2571" y="-1" relative="1" as="geometry">
            <mxPoint x="-17" y="-11" as="offset" />
          </mxGeometry>
        </mxCell>
        <mxCell id="9c3I11lACqH2MgyoT5pi-67" value="Тех поддержка" style="shape=umlActor;verticalLabelPosition=bottom;verticalAlign=top;html=1;outlineConnect=0;" parent="1" vertex="1">
          <mxGeometry x="1210" y="245" width="30" height="60" as="geometry" />
        </mxCell>
        <mxCell id="9c3I11lACqH2MgyoT5pi-68" value="Ответы на поросы пользователей" style="ellipse;whiteSpace=wrap;html=1;" parent="1" vertex="1">
          <mxGeometry x="1390" y="245" width="120" height="80" as="geometry" />
        </mxCell>
        <mxCell id="9c3I11lACqH2MgyoT5pi-69" value="" style="endArrow=none;html=1;rounded=0;" parent="1" source="9c3I11lACqH2MgyoT5pi-67" target="9c3I11lACqH2MgyoT5pi-68" edge="1">
          <mxGeometry width="50" height="50" relative="1" as="geometry">
            <mxPoint x="1190" y="245" as="sourcePoint" />
            <mxPoint x="1240" y="195" as="targetPoint" />
          </mxGeometry>
        </mxCell>
        <mxCell id="9c3I11lACqH2MgyoT5pi-70" value="Решение проблем пользователей" style="ellipse;whiteSpace=wrap;html=1;" parent="1" vertex="1">
          <mxGeometry x="1390" y="355" width="120" height="80" as="geometry" />
        </mxCell>
        <mxCell id="9c3I11lACqH2MgyoT5pi-71" value="" style="endArrow=none;html=1;rounded=0;" parent="1" source="9c3I11lACqH2MgyoT5pi-67" target="9c3I11lACqH2MgyoT5pi-70" edge="1">
          <mxGeometry width="50" height="50" relative="1" as="geometry">
            <mxPoint x="1190" y="245" as="sourcePoint" />
            <mxPoint x="1240" y="195" as="targetPoint" />
          </mxGeometry>
        </mxCell>
        <mxCell id="9c3I11lACqH2MgyoT5pi-78" value="Изменить данные профиля&amp;nbsp;" style="ellipse;whiteSpace=wrap;html=1;" parent="1" vertex="1">
          <mxGeometry x="780" y="290" width="120" height="80" as="geometry" />
        </mxCell>
        <mxCell id="9c3I11lACqH2MgyoT5pi-79" value="Удаление профиля" style="ellipse;whiteSpace=wrap;html=1;" parent="1" vertex="1">
          <mxGeometry x="620" y="370" width="120" height="80" as="geometry" />
        </mxCell>
        <mxCell id="9c3I11lACqH2MgyoT5pi-80" value="" style="endArrow=classic;html=1;rounded=0;dashed=1;" parent="1" source="9c3I11lACqH2MgyoT5pi-79" target="9c3I11lACqH2MgyoT5pi-32" edge="1">
          <mxGeometry width="50" height="50" relative="1" as="geometry">
            <mxPoint x="149" y="-272.5" as="sourcePoint" />
            <mxPoint x="241" y="-263.5" as="targetPoint" />
          </mxGeometry>
        </mxCell>
        <mxCell id="9c3I11lACqH2MgyoT5pi-81" value="&amp;lt;&amp;lt;extend&amp;gt;&amp;gt;" style="edgeLabel;html=1;align=center;verticalAlign=middle;resizable=0;points=[];" parent="9c3I11lACqH2MgyoT5pi-80" vertex="1" connectable="0">
          <mxGeometry x="-0.2571" y="-1" relative="1" as="geometry">
            <mxPoint x="17" y="-10" as="offset" />
          </mxGeometry>
        </mxCell>
        <mxCell id="9c3I11lACqH2MgyoT5pi-82" value="" style="endArrow=classic;html=1;rounded=0;dashed=1;" parent="1" source="9c3I11lACqH2MgyoT5pi-78" target="9c3I11lACqH2MgyoT5pi-32" edge="1">
          <mxGeometry width="50" height="50" relative="1" as="geometry">
            <mxPoint x="159" y="-262.5" as="sourcePoint" />
            <mxPoint x="251" y="-253.49999999999997" as="targetPoint" />
          </mxGeometry>
        </mxCell>
        <mxCell id="9c3I11lACqH2MgyoT5pi-83" value="&amp;lt;&amp;lt;extend&amp;gt;&amp;gt;" style="edgeLabel;html=1;align=center;verticalAlign=middle;resizable=0;points=[];" parent="9c3I11lACqH2MgyoT5pi-82" vertex="1" connectable="0">
          <mxGeometry x="-0.2571" y="-1" relative="1" as="geometry">
            <mxPoint x="17" y="-10" as="offset" />
          </mxGeometry>
        </mxCell>
        <mxCell id="0-vWPdijyS-fK9YwLOxk-1" value="" style="endArrow=none;html=1;rounded=0;" parent="1" source="PUThZEJy_DijCIgUab3H-3" target="9c3I11lACqH2MgyoT5pi-32" edge="1">
          <mxGeometry width="50" height="50" relative="1" as="geometry">
            <mxPoint x="560" y="190" as="sourcePoint" />
            <mxPoint x="610" y="140" as="targetPoint" />
          </mxGeometry>
        </mxCell>
        <mxCell id="0-vWPdijyS-fK9YwLOxk-2" value="" style="endArrow=none;html=1;rounded=0;" parent="1" source="PUThZEJy_DijCIgUab3H-3" target="9c3I11lACqH2MgyoT5pi-21" edge="1">
          <mxGeometry width="50" height="50" relative="1" as="geometry">
            <mxPoint x="560" y="190" as="sourcePoint" />
            <mxPoint x="610" y="140" as="targetPoint" />
          </mxGeometry>
        </mxCell>
        <mxCell id="0-vWPdijyS-fK9YwLOxk-3" value="" style="endArrow=none;html=1;rounded=0;" parent="1" source="PUThZEJy_DijCIgUab3H-3" target="PUThZEJy_DijCIgUab3H-8" edge="1">
          <mxGeometry width="50" height="50" relative="1" as="geometry">
            <mxPoint x="500" as="sourcePoint" />
            <mxPoint x="550" y="-50" as="targetPoint" />
          </mxGeometry>
        </mxCell>
      </root>
    </mxGraphModel>
  </diagram>
</mxfile>
